<?xml version="1.0" encoding="UTF-8" standalone="no"?><!DOCTYPE svg PUBLIC "-//W3C//DTD SVG 1.1//EN" "http://www.w3.org/Graphics/SVG/1.1/DTD/svg11.dtd"><svg width="100%" height="100%" viewBox="0 0 605 531" version="1.1" xmlns="http://www.w3.org/2000/svg" xmlns:xlink="http://www.w3.org/1999/xlink" xml:space="preserve" xmlns:serif="http://www.serif.com/" style="fill-rule:evenodd;clip-rule:evenodd;stroke-linecap:round;stroke-linejoin:round;stroke-miterlimit:1.5;"><rect x="35" y="96.569" width="534.639" height="11.787" style="fill:#ebebeb;stroke:#000;stroke-width:2.92px;"/><g><path d="M318.071,360.092c139.03,-0 251.568,-107.229 251.568,-246.258c-0,139.03 -112.538,246.258 -251.568,246.258Z" style="fill:#fff;"/><path d="M321.571,351.342l-17.5,8.75l17.5,8.75c-4.375,-4.375 -4.375,-13.125 -0,-17.5Z" style="fill:#818181;"/><path d="M318.071,360.092c139.03,-0 251.568,-107.229 251.568,-246.258c-0,139.03 -112.538,246.258 -251.568,246.258Z" style="fill:none;stroke:#818181;stroke-width:2.92px;stroke-linecap:square;stroke-linejoin:miter;stroke-dasharray:2.917,5.833,0,0,0,0;"/></g><g><path d="M286.735,360.092c-139.03,-0 -251.735,-107.229 -251.735,-246.258c0,139.03 112.706,246.258 251.735,246.258Z" style="fill:#fff;"/><path d="M283.235,368.842l17.5,-8.75l-17.5,-8.75c4.375,4.375 4.375,13.125 -0,17.5Z" style="fill:#818181;"/><path d="M286.735,360.092c-139.03,-0 -251.735,-107.229 -251.735,-246.258c0,139.03 112.706,246.258 251.735,246.258Z" style="fill:none;stroke:#818181;stroke-width:2.92px;stroke-linecap:square;stroke-linejoin:miter;stroke-dasharray:2.917,5.833,0,0,0,0;"/></g><path d="M284.23,492.579l8.75,17.5l8.75,-17.5c-4.375,4.375 -13.125,4.375 -17.5,0Z" style="fill:#818181;"/><path d="M292.98,496.079l0,-121.556" style="fill:none;stroke:#818181;stroke-width:2.92px;stroke-linecap:square;stroke-linejoin:miter;stroke-dasharray:2.917,5.833,0,0,0,0;"/><path d="M303.602,492.579l8.75,17.5l8.75,-17.5c-4.375,4.375 -13.125,4.375 -17.5,-0Z" style="fill:#818181;"/><path d="M312.352,496.079l0,-121.556" style="fill:none;stroke:#818181;stroke-width:2.92px;stroke-linecap:square;stroke-linejoin:miter;stroke-dasharray:2.917,5.833,0,0,0,0;"/><g><g><path d="M133.54,38.5l-8.75,-17.5l-8.75,17.5l17.5,0Z" style="fill:#d62727;"/><path d="M124.79,35l0,38.181" style="fill:none;stroke:#d62727;stroke-width:2.92px;stroke-linecap:square;stroke-linejoin:miter;"/><path d="M162.504,86.114l17.5,-8.75l-17.5,-8.75l-0,17.5Z" style="fill:#2da02c;"/><path d="M166.004,77.364l-38.181,0" style="fill:none;stroke:#2da02c;stroke-width:2.92px;stroke-linecap:square;stroke-linejoin:miter;"/></g><g transform="matrix(20.833333,0,0,20.833333,110.905938,35.000011)"></g><text x="69.219px" y="35px" style="font-family:'ArialMT', 'Arial', sans-serif;font-size:20.833px;fill:#d62727;">ABP</text><g transform="matrix(20.833333,0,0,20.833333,207.233254,61.547031)"></g><text x="164.397px" y="61.547px" style="font-family:'ArialMT', 'Arial', sans-serif;font-size:20.833px;fill:#2da02c;">PCP</text></g></svg>